<?xml version="1.0" standalone="no"?>
<!DOCTYPE svg PUBLIC "-//W3C//DTD SVG 20010904//EN"
 "http://www.w3.org/TR/2001/REC-SVG-20010904/DTD/svg10.dtd">
<svg version="1.0" xmlns="http://www.w3.org/2000/svg"
 width="1366.000000pt" height="768.000000pt" viewBox="0 0 1366.000000 768.000000"
 preserveAspectRatio="xMidYMid meet">

<g transform="translate(0.000000,768.000000) scale(0.100000,-0.100000)"
fill="#000000" stroke="none">
<path d="M103 7563 c235 -331 267 -383 396 -641 121 -241 135 -277 214 -523
47 -145 97 -292 111 -325 99 -235 174 -735 202 -1340 13 -288 14 -391 4 -594
-6 -135 -13 -254 -16 -266 -3 -11 4 -46 16 -77 l21 -57 64 41 c54 34 109 52
387 130 177 49 331 92 341 95 14 4 17 17 17 67 1 34 6 74 13 89 15 35 147 184
168 191 23 7 46 63 79 194 16 65 58 223 94 350 l65 233 145 280 145 280 107
338 c120 378 145 441 199 501 56 61 80 71 182 71 103 0 215 -22 402 -79 118
-36 137 -39 155 -27 39 25 180 327 251 536 57 167 83 227 186 418 65 124 119
226 119 228 0 2 -934 4 -2075 4 l-2075 0 83 -117z"/>
<path d="M4192 7563 c-77 -151 -172 -372 -255 -593 -72 -193 -147 -421 -147
-445 0 -13 47 -15 413 -15 405 0 1658 -13 2542 -26 l450 -6 -3 230 -3 230 -87
30 c-237 83 -325 134 -335 194 -5 32 6 300 19 446 l6 72 -1270 0 -1269 0 -61
-117z"/>
<path d="M6930 7671 c0 -4 10 -31 21 -60 21 -50 23 -52 88 -71 38 -11 127 -24
211 -30 270 -19 209 2 716 -255 267 -135 460 -239 462 -248 8 -41 -76 -49
-678 -67 -206 -6 -403 -13 -437 -16 l-63 -6 0 -218 0 -218 63 -6 c34 -3 134
-8 222 -11 288 -10 788 -35 909 -45 115 -10 123 -12 220 -61 148 -75 317 -189
394 -267 70 -70 84 -96 142 -257 62 -173 271 -571 371 -709 l58 -79 11 29 c22
57 198 661 225 772 42 174 28 242 -74 354 -69 75 -110 102 -249 158 -142 58
-284 122 -279 126 2 2 104 -39 228 -91 l224 -95 75 -78 c42 -42 86 -99 100
-126 50 -104 41 -157 -102 -595 -94 -289 -138 -441 -138 -479 0 -34 30 -100
233 -512 239 -484 347 -673 484 -843 62 -77 119 -123 172 -137 125 -33 641
-60 1563 -81 l478 -10 242 123 c191 96 253 132 288 168 25 25 120 166 212 313
l168 267 -15 107 -15 108 -47 43 c-27 24 -61 54 -78 67 -26 20 -656 346 -2470
1280 -286 147 -824 422 -1195 610 -665 337 -847 431 -1774 912 l-469 243 -248
0 c-137 0 -249 -4 -249 -9z m990 -842 c173 -8 270 -7 370 1 100 9 171 9 274 0
l139 -11 214 -130 c117 -72 213 -133 213 -135 0 -7 -32 11 -237 134 l-193 115
-575 10 -575 10 -97 -58 c-54 -32 -109 -65 -123 -74 -14 -8 -21 -11 -17 -5 5
5 61 42 125 81 136 85 99 80 482 62z m-620 -154 c0 -2 -10 -9 -22 -15 -22 -11
-22 -10 -4 4 21 17 26 19 26 11z"/>
<path d="M7765 7573 c121 -59 500 -247 843 -419 l622 -313 -6 67 c-3 37 -18
225 -33 417 l-26 350 -810 2 -810 3 220 -107z"/>
<path d="M9265 7598 c3 -46 10 -153 16 -238 12 -182 34 -357 56 -455 13 -59
22 -76 57 -110 54 -51 193 -130 536 -301 151 -75 601 -306 1000 -514 634 -329
1150 -588 1845 -925 105 -51 284 -149 398 -219 l209 -126 46 10 c77 17 175 52
205 72 l27 19 0 1435 0 1434 -2201 0 -2200 0 6 -82z"/>
<path d="M0 3824 c0 -2013 3 -3696 7 -3742 l6 -82 175 2 176 3 7 25 c3 14 59
214 124 445 337 1210 626 2294 665 2500 l12 61 -96 286 c-53 157 -96 302 -96
322 0 22 -10 51 -26 75 -41 63 -55 121 -43 188 6 34 10 251 10 523 0 431 -2
482 -26 695 -57 514 -100 784 -135 840 -11 17 -73 193 -138 391 -66 197 -149
429 -186 514 -135 313 -266 504 -408 595 l-28 17 0 -3658z"/>
<path d="M6883 7443 c-24 -58 -37 -153 -24 -185 12 -31 147 -123 273 -187 l83
-41 455 15 c250 9 458 17 463 18 10 3 -328 205 -438 262 l-90 46 -293 25
c-285 24 -294 25 -346 54 -29 17 -56 30 -60 30 -4 0 -14 -17 -23 -37z"/>
<path d="M3030 6490 c-19 -11 -45 -19 -57 -20 -18 0 -30 -16 -62 -82 -75 -158
-201 -493 -227 -605 -24 -105 -111 -294 -311 -673 -25 -49 -114 -389 -158
-610 l-27 -135 -105 -100 -104 -100 -6 -58 -6 -58 50 20 c330 130 367 141 511
156 l64 7 113 107 c139 133 295 274 358 325 38 31 50 36 61 26 8 -6 43 -20 78
-31 50 -15 94 -19 214 -19 83 0 172 3 198 6 54 8 54 8 66 146 l7 93 1 -90 c0
-49 -3 -110 -6 -134 -7 -41 -10 -45 -49 -58 -41 -14 -93 -62 -93 -86 0 -7 -9
-120 -20 -252 -10 -131 -18 -240 -16 -242 1 -1 76 -14 167 -28 90 -14 176 -28
190 -31 24 -4 38 10 163 166 l137 170 -7 64 -7 64 -33 -5 c-40 -7 -40 -7 -49
110 l-7 89 -46 -6 c-26 -3 -82 -8 -124 -12 l-78 -6 0 49 0 50 128 6 c70 4 169
7 220 7 l94 0 -6 38 c-3 20 -8 65 -12 100 l-6 63 -167 -7 -168 -7 -6 69 c-4
38 -7 88 -7 112 l0 43 -90 -7 -90 -7 0 53 0 52 263 -6 c144 -3 332 -9 418 -12
l156 -6 7 622 c4 342 6 624 4 625 -2 2 -178 8 -392 14 l-390 11 -66 -46 c-45
-30 -78 -46 -101 -46 -19 -1 -135 28 -259 64 -291 84 -269 80 -310 58z m667
-1533 c-2 -23 -3 -1 -3 48 0 50 1 68 3 42 2 -26 2 -67 0 -90z"/>
<path d="M5964 6322 l-59 -37 -215 -5 -215 -5 2 -124 c1 -68 5 -126 7 -129 3
-3 89 -33 191 -68 l184 -63 60 72 59 73 25 159 c14 88 25 161 23 162 -1 1 -29
-14 -62 -35z"/>
<path d="M6137 6274 c-14 -38 -37 -99 -51 -136 l-25 -67 41 -33 41 -32 -7
-428 c-7 -407 -6 -428 11 -428 10 0 140 -7 288 -15 369 -19 678 -29 706 -22
l24 6 3 533 c2 293 1 549 -3 569 l-6 35 -467 38 c-257 21 -481 41 -498 43 -31
5 -32 4 -57 -63z"/>
<path d="M7245 5819 c-6 -410 -5 -493 6 -501 38 -25 225 19 311 74 62 39 86
31 29 -10 -60 -44 -138 -71 -259 -90 l-104 -17 6 -35 c3 -19 6 -44 6 -55 0
-20 6 -20 868 -19 477 1 951 4 1053 9 l187 7 -44 82 c-123 227 -246 467 -311
611 -116 253 -133 283 -176 321 -52 44 -127 79 -197 92 -32 6 -330 13 -711 16
l-656 6 -8 -491z"/>
<path d="M4610 6253 c0 -26 -7 -273 -15 -547 -8 -275 -13 -501 -12 -502 3 -3
840 -34 843 -31 3 3 34 1110 31 1112 -1 1 -192 5 -424 9 l-423 7 0 -48z"/>
<path d="M5927 5935 c-48 -53 -75 -75 -92 -75 -26 0 -132 38 -262 93 l-83 35
0 -56 c0 -32 -5 -207 -10 -391 -5 -184 -9 -336 -7 -337 1 -1 115 -10 252 -18
138 -9 278 -19 311 -22 l62 -5 6 253 c3 139 9 323 12 409 l6 156 -48 12 c-27
7 -56 14 -64 16 -9 3 -42 -25 -83 -70z"/>
<path d="M5030 5104 c17 -15 46 -56 64 -93 44 -86 96 -252 89 -279 -11 -43 26
-22 82 45 80 97 93 103 237 113 68 5 137 10 153 10 24 1 19 4 -29 21 -59 20
-164 83 -238 141 -34 27 -52 31 -185 48 -82 11 -161 20 -176 20 l-29 0 32 -26z"/>
<path d="M4563 5069 c4 -30 7 -69 7 -88 l0 -34 65 6 c36 4 65 2 65 -2 0 -5 26
-12 57 -16 32 -4 75 -16 95 -26 21 -11 48 -17 60 -15 13 3 42 7 66 10 l42 6 0
-48 c0 -48 0 -48 56 -80 31 -18 59 -30 62 -27 9 8 -74 253 -101 300 -22 38
-25 40 -68 37 -45 -3 -302 13 -373 24 l-39 6 6 -53z"/>
<path d="M8230 5108 c-27 -10 -36 -20 -41 -46 -9 -44 -52 -88 -106 -108 -36
-14 -43 -21 -43 -43 0 -28 -15 -332 -25 -492 l-6 -97 70 -50 69 -51 -60 -117
-61 -116 79 6 c44 3 181 11 307 17 l227 11 31 -26 31 -26 32 19 c17 10 231
130 476 266 245 136 448 250 451 253 4 4 -22 59 -58 122 -36 63 -108 195 -160
293 l-96 177 -190 -2 -190 -3 -48 -85 c-27 -47 -53 -86 -58 -88 -5 -2 -32 33
-60 78 -28 44 -53 80 -54 80 -2 0 -55 7 -118 15 -167 22 -356 28 -399 13z"/>
<path d="M3936 5063 c-8 -57 13 -84 83 -108 39 -13 80 -15 280 -9 l233 7 -6
45 c-3 25 -6 60 -6 78 l0 34 -289 0 -288 0 -7 -47z"/>
<path d="M5610 5100 l-225 -5 65 -46 c154 -110 222 -133 343 -118 53 7 86 18
127 43 30 18 79 45 108 60 28 14 52 30 52 35 0 5 3 16 6 25 7 18 6 18 -476 6z"/>
<path d="M7230 4979 c0 -74 -3 -218 -7 -322 l-6 -187 79 44 c154 88 235 107
501 122 122 7 123 7 158 -20 l35 -27 0 169 0 169 -227 -1 -228 -1 -40 26 c-22
15 -71 54 -110 88 -38 33 -75 61 -81 61 -6 0 -26 3 -43 6 l-31 7 0 -134z"/>
<path d="M6120 5084 c0 -14 46 -15 478 -11 262 3 495 10 517 15 28 7 -117 10
-477 11 -467 1 -518 -1 -518 -15z"/>
<path d="M7495 5079 c-49 -5 -93 -10 -97 -11 -4 -2 31 -27 78 -55 l84 -53 210
0 c161 0 210 3 210 13 0 6 -19 33 -43 60 l-42 47 -113 -10 c-99 -10 -117 -9
-137 4 -14 9 -32 15 -42 15 -10 -1 -58 -6 -108 -10z"/>
<path d="M8798 5082 c-14 -6 -11 -14 22 -55 l39 -48 29 43 c48 72 49 68 -15
67 -32 0 -65 -3 -75 -7z"/>
<path d="M7100 5069 c-30 -4 -262 -13 -515 -20 -253 -6 -462 -14 -465 -16 -3
-3 -7 -43 -9 -89 l-3 -84 243 0 c134 0 376 3 537 7 l292 6 0 51 c0 67 -11 156
-19 155 -3 -1 -31 -5 -61 -10z"/>
<path d="M7960 5071 l-24 -7 36 -39 c20 -22 38 -38 40 -35 2 3 19 24 37 48
l33 42 -49 -1 c-26 -1 -59 -4 -73 -8z"/>
<path d="M8098 5051 c-35 -30 -75 -91 -61 -91 22 0 143 95 143 112 0 19 -52 6
-82 -21z"/>
<path d="M6043 5018 c-17 -4 -64 -28 -103 -52 -48 -30 -88 -47 -123 -51 -106
-15 -86 -22 82 -29 96 -4 175 -5 178 -3 2 3 3 36 1 74 l-3 69 -32 -8z"/>
<path d="M5645 4873 c-11 -2 -43 -11 -71 -18 l-51 -15 -5 -210 c-3 -116 -3
-242 0 -281 4 -64 7 -70 30 -76 14 -3 66 1 115 10 l90 16 200 -140 199 -140
-6 118 c-3 65 -8 201 -11 303 -4 102 -11 223 -16 270 -9 83 -11 86 -52 123
-41 37 -43 37 -107 32 -220 -16 -271 -17 -268 -4 3 14 -16 19 -47 12z"/>
<path d="M5411 4840 c-37 -6 -54 -16 -98 -64 l-53 -57 0 -128 c0 -70 3 -223 7
-339 l6 -212 108 0 107 0 69 79 c37 44 73 80 78 80 6 1 18 15 27 31 l17 30
-62 -5 c-52 -5 -67 -3 -94 14 l-33 21 0 280 c0 314 9 285 -79 270z"/>
<path d="M6180 4410 l0 -400 502 0 501 0 -6 233 c-4 127 -7 307 -7 400 l0 167
-495 0 -495 0 0 -400z"/>
<path d="M13576 4646 c-38 -12 -71 -26 -73 -32 -3 -10 84 -101 91 -93 17 18
66 114 66 129 0 24 3 24 -84 -4z"/>
<path d="M3059 4593 c-81 -62 -403 -377 -398 -391 2 -6 56 -48 119 -93 67 -48
155 -125 210 -182 52 -54 124 -124 159 -155 l64 -57 84 90 c46 50 101 113 123
141 39 50 40 52 60 208 11 86 20 173 20 194 0 20 9 73 19 117 11 44 18 81 16
83 -2 2 -77 16 -167 31 -90 16 -178 36 -195 45 -18 9 -36 16 -42 16 -5 0 -37
-21 -72 -47z"/>
<path d="M7656 4610 c-150 -24 -340 -98 -404 -159 -24 -21 -32 -38 -32 -63 0
-58 10 -77 44 -86 17 -4 185 -6 374 -4 l343 4 -7 121 c-4 67 -12 128 -18 136
-36 46 -179 70 -300 51z"/>
<path d="M9563 4377 c-73 -45 -131 -86 -130 -91 4 -12 791 -725 795 -721 4 3
-527 896 -531 894 -1 0 -62 -37 -134 -82z"/>
<path d="M4283 4375 c-12 -9 -25 -31 -29 -50 -5 -28 -11 -35 -30 -35 -18 0
-54 -37 -161 -166 -76 -92 -138 -171 -138 -177 0 -12 169 -61 270 -78 63 -11
76 -10 97 3 12 8 98 43 189 77 l167 61 173 10 c96 5 218 10 272 10 l97 0 0
175 0 175 -25 0 c-18 0 -25 -5 -25 -20 0 -19 -4 -20 -52 -14 -29 4 -55 10 -58
14 -6 9 -442 30 -611 30 -87 0 -120 -4 -136 -15z"/>
<path d="M13469 4031 l-187 -338 -139 -384 -140 -384 -264 -1022 c-145 -562
-265 -1020 -267 -1018 -6 6 280 1518 323 1710 76 337 87 379 105 414 l17 35
-36 26 c-20 15 -85 71 -144 126 -60 54 -121 107 -136 116 -48 31 -284 40
-1196 47 l-870 6 -105 42 -105 42 -285 20 c-157 11 -311 23 -342 26 l-57 6
-213 -323 c-118 -178 -245 -372 -283 -432 -38 -59 -88 -125 -112 -145 -64 -57
-238 -177 -443 -305 l-185 -116 -95 0 c-52 0 -143 5 -203 10 -99 10 -110 9
-147 -10 -22 -11 -47 -31 -56 -45 -9 -13 -32 -91 -51 -172 -92 -387 -178 -735
-199 -798 -42 -131 -155 -438 -184 -499 -17 -36 -31 -87 -35 -126 l-7 -65 240
-237 239 -238 2176 0 c1786 0 2177 2 2177 13 0 36 395 1421 588 2062 33 110
90 301 126 425 135 463 290 893 496 1375 107 251 190 459 188 472 -2 15 -61
-82 -189 -316z m-3506 -597 c57 -19 129 -81 165 -142 25 -43 27 -56 27 -147 0
-91 -2 -104 -27 -147 -36 -61 -108 -123 -165 -142 -60 -20 -166 -20 -226 0
-57 19 -140 92 -170 148 -18 34 -22 57 -22 141 0 84 4 107 22 141 29 54 113
129 166 147 56 20 172 21 230 1z"/>
<path d="M7527 4283 l-208 -3 26 -44 c39 -67 28 -153 -28 -215 l-22 -24 344 6
c189 3 345 8 347 10 3 2 2 66 -2 141 l-7 136 -121 -2 c-67 -2 -215 -4 -329 -5z"/>
<path d="M8010 4154 c0 -76 2 -135 4 -133 2 2 29 46 60 96 l55 93 -59 40 -60
41 0 -137z"/>
<path d="M5697 4233 c-19 -21 -64 -71 -101 -111 -38 -40 -66 -75 -64 -77 4 -4
531 -25 535 -21 2 2 -49 43 -114 91 -65 48 -132 103 -150 121 -41 44 -63 43
-106 -3z"/>
<path d="M7230 4136 c0 -149 4 -157 53 -112 42 39 60 83 55 138 -6 63 -35 102
-76 106 l-32 3 0 -135z"/>
<path d="M8715 3910 l-660 -359 -6 -153 c-9 -221 -10 -1081 -1 -1094 10 -15
168 -49 227 -49 45 0 67 10 225 101 96 56 195 111 220 124 60 30 233 144 276
182 49 43 202 265 272 394 32 60 110 190 172 289 61 99 118 192 126 208 14 25
18 27 82 27 37 0 168 -11 292 -24 124 -13 226 -23 228 -21 2 2 -34 39 -80 83
-108 103 -707 652 -710 651 -2 0 -300 -162 -663 -359z"/>
<path d="M2239 4036 c-118 -41 -252 -88 -299 -104 -47 -17 -218 -67 -380 -113
-246 -68 -308 -89 -372 -126 -42 -24 -81 -50 -87 -57 -6 -8 -12 -40 -13 -72
-2 -53 5 -74 64 -206 108 -240 123 -287 122 -398 0 -82 -5 -109 -36 -200 -20
-58 -96 -325 -168 -595 -73 -269 -167 -607 -210 -750 -73 -242 -262 -889 -363
-1245 l-44 -155 3281 -7 c1805 -4 3470 -7 3700 -5 l419 2 -888 775 c-1506
1313 -1431 1249 -1512 1287 -40 18 -109 47 -153 63 -63 23 -165 85 -453 274
-400 262 -599 386 -937 587 -234 139 -332 214 -473 359 -51 52 -227 231 -392
398 -351 355 -362 362 -505 362 -81 0 -98 -4 -301 -74z"/>
<path d="M4740 3958 c-54 -5 -101 -14 -110 -22 -8 -8 -66 -35 -129 -60 -63
-25 -124 -54 -135 -65 -12 -10 -35 -22 -52 -25 -70 -15 -378 50 -451 95 -18
11 -83 31 -146 44 -62 13 -120 27 -128 30 -20 7 -90 -67 -192 -202 l-78 -103
72 -94 c57 -77 104 -123 242 -238 193 -160 177 -150 532 -353 143 -82 453
-274 690 -428 280 -182 455 -289 503 -308 40 -16 99 -42 130 -58 51 -26 330
-232 464 -343 l46 -38 90 123 c120 167 152 250 153 410 1 62 4 155 8 207 l6
94 77 46 c42 25 79 47 82 50 6 7 81 737 91 881 l6 97 -184 129 -183 130 -655
5 c-360 3 -697 1 -749 -4z"/>
<path d="M6236 3946 c12 -8 267 -173 568 -365 l547 -351 89 51 89 50 -50 77
c-27 42 -79 112 -114 154 l-65 77 0 155 0 156 -247 0 c-137 0 -381 3 -543 6
-269 6 -293 5 -274 -10z"/>
<path d="M7542 3943 l-223 -3 3 -155 3 -154 32 -28 c17 -15 70 -81 118 -146
80 -110 87 -117 108 -106 40 22 432 260 440 268 4 4 5 80 1 169 l-7 162 -126
-2 c-69 -2 -226 -4 -349 -5z"/>
<path d="M8061 3853 c1 -54 4 -125 8 -159 l6 -61 279 151 278 151 -113 6 c-63
4 -192 7 -286 8 l-173 1 1 -97z"/>
<path d="M13612 3878 c-111 -182 -428 -1201 -952 -3057 -72 -255 -129 -465
-127 -467 1 -2 112 337 245 754 133 416 386 1207 562 1757 176 550 319 1009
318 1019 -5 32 -24 29 -46 -6z"/>
<path d="M6546 3668 c-9 -55 -77 -909 -74 -923 2 -9 41 9 118 53 243 138 446
261 464 281 19 21 19 22 -6 49 -59 63 -80 165 -49 240 8 18 12 34 10 36 -5 4
-427 278 -446 289 -8 5 -14 -3 -17 -25z"/>
<path d="M12895 3471 c-115 -48 -208 -90 -206 -93 2 -3 61 -64 132 -136 l128
-130 50 127 c27 69 63 162 79 206 17 44 33 88 37 98 4 9 3 17 -1 16 -5 -1
-103 -40 -219 -88z"/>
<path d="M7710 3357 c-282 -150 -544 -294 -580 -317 -12 -8 -8 -17 26 -52 64
-66 67 -78 59 -189 l-6 -97 28 -6 c60 -12 445 -57 590 -68 118 -9 156 -9 165
0 12 12 31 586 26 789 l-3 102 -305 -162z"/>
<path d="M7026 3364 c-3 -9 -6 -45 -6 -81 0 -76 19 -124 63 -155 l30 -22 71
37 c76 40 112 64 105 71 -2 2 -61 40 -131 84 -99 63 -128 77 -132 66z"/>
<path d="M13395 2563 c-444 -1355 -730 -2241 -821 -2545 -5 -17 25 -18 540
-18 l546 0 0 1675 c0 921 -1 1675 -3 1675 -2 0 -120 -354 -262 -787z"/>
<path d="M6750 2824 l-335 -182 -3 -41 c-4 -47 0 -49 46 -21 18 11 88 30 161
44 98 18 143 31 185 55 80 46 292 280 284 314 -2 9 -108 -44 -338 -169z"/>
<path d="M7067 2912 c-52 -92 -152 -191 -246 -245 -67 -39 -91 -47 -205 -65
-154 -26 -196 -47 -196 -97 0 -18 3 -47 6 -65 l7 -32 86 6 c47 3 150 8 227 12
l142 6 4 65 c3 54 8 68 29 84 34 28 124 73 197 99 34 12 62 25 62 29 0 3 7 49
15 101 l15 95 -43 37 c-23 21 -46 38 -52 38 -5 0 -27 -31 -48 -68z"/>
<path d="M7048 2619 c-96 -38 -128 -71 -128 -135 0 -64 19 -135 44 -162 11
-13 116 -97 231 -185 116 -89 277 -215 359 -279 82 -65 151 -116 152 -115 2 2
19 75 38 163 52 238 61 262 115 316 36 36 57 49 89 54 l42 7 0 153 0 154 -145
0 c-79 0 -154 4 -167 10 -21 9 -457 50 -523 50 -17 -1 -65 -14 -107 -31z"/>
<path d="M6347 2480 c-3 -14 -9 -99 -12 -190 l-7 -165 -49 -116 c-40 -93 -65
-135 -125 -207 -41 -50 -74 -95 -74 -99 0 -5 78 -78 172 -163 95 -85 381 -345
635 -577 255 -233 465 -423 468 -423 3 0 5 38 5 84 0 65 4 88 18 107 39 50
113 261 206 581 40 139 106 388 106 402 0 3 -107 85 -237 183 -131 98 -281
212 -333 253 -119 94 -129 101 -220 140 l-75 32 -145 -11 c-80 -7 -181 -16
-224 -21 -44 -6 -81 -8 -83 -6 -3 2 -8 53 -12 113 -4 64 -10 98 -14 83z"/>
</g>
</svg>
